<svg width="48" height="48" viewBox="0 0 48 48" fill="none" xmlns="http://www.w3.org/2000/svg">
<path d="M23.7501 40C23.8834 40 24.0167 39.9667 24.1501 39.9C24.2834 39.8333 24.3834 39.7667 24.4501 39.7L40.8501 23.3C41.2501 22.9 41.5421 22.45 41.7261 21.95C41.9101 21.45 42.0014 20.95 42.0001 20.45C42.0001 19.9167 41.9087 19.408 41.7261 18.924C41.5434 18.44 41.2514 18.0153 40.8501 17.65L32.3501 9.15C31.9834 8.75 31.5581 8.45867 31.0741 8.276C30.5901 8.09333 30.0827 8.00133 29.5521 8C29.0521 8 28.5521 8.092 28.0521 8.276C27.5521 8.46 27.1021 8.75133 26.7021 9.15L26.1521 9.7L29.8521 13.45C30.3521 13.9167 30.7187 14.45 30.9521 15.05C31.1854 15.65 31.3021 16.2833 31.3021 16.95C31.3021 18.35 30.8274 19.5253 29.8781 20.476C28.9287 21.4267 27.7534 21.9013 26.3521 21.9C25.6854 21.9 25.0441 21.7833 24.4281 21.55C23.8121 21.3167 23.2701 20.9667 22.8021 20.5L19.0501 16.8L10.3001 25.55C10.2001 25.65 10.1254 25.7587 10.0761 25.876C10.0267 25.9933 10.0014 26.118 10.0001 26.25C10.0001 26.5167 10.1001 26.7587 10.3001 26.976C10.5001 27.1933 10.7334 27.3013 11.0001 27.3C11.1334 27.3 11.2667 27.2667 11.4001 27.2C11.5334 27.1333 11.6334 27.0667 11.7001 27L17.1001 21.6C17.4667 21.2333 17.9254 21.0413 18.4761 21.024C19.0267 21.0067 19.5014 21.1987 19.9001 21.6C20.2667 21.9667 20.4501 22.4333 20.4501 23C20.4501 23.5667 20.2667 24.0333 19.9001 24.4L14.5501 29.8C14.4501 29.9 14.3754 30.0087 14.3261 30.126C14.2767 30.2433 14.2514 30.368 14.2501 30.5C14.2501 30.7667 14.3501 31 14.5501 31.2C14.7501 31.4 14.9834 31.5 15.2501 31.5C15.3834 31.5 15.5167 31.4667 15.6501 31.4C15.7834 31.3333 15.8834 31.2667 15.9501 31.2L21.3501 25.85C21.7167 25.4833 22.1754 25.2913 22.7261 25.274C23.2767 25.2567 23.7514 25.4487 24.1501 25.85C24.5167 26.2167 24.7001 26.6833 24.7001 27.25C24.7001 27.8167 24.5167 28.2833 24.1501 28.65L18.8001 34.05C18.7001 34.1167 18.6254 34.2167 18.5761 34.35C18.5267 34.4833 18.5014 34.6167 18.5001 34.75C18.5001 35.0167 18.6001 35.25 18.8001 35.45C19.0001 35.65 19.2334 35.75 19.5001 35.75C19.6334 35.75 19.7587 35.7247 19.8761 35.674C19.9934 35.6233 20.1014 35.5487 20.2001 35.45L25.6001 30.1C25.9667 29.7333 26.4254 29.5413 26.9761 29.524C27.5267 29.5067 28.0014 29.6987 28.4001 30.1C28.7667 30.4667 28.9501 30.9333 28.9501 31.5C28.9501 32.0667 28.7667 32.5333 28.4001 32.9L23.0001 38.3C22.9001 38.4 22.8254 38.5087 22.7761 38.626C22.7267 38.7433 22.7014 38.868 22.7001 39C22.7001 39.2667 22.8087 39.5 23.0261 39.7C23.2434 39.9 23.4847 40 23.7501 40ZM23.7001 44C22.4667 44 21.3754 43.592 20.4261 42.776C19.4767 41.96 18.9181 40.9347 18.7501 39.7C17.6167 39.5333 16.6667 39.0667 15.9001 38.3C15.1334 37.5333 14.6667 36.5833 14.5001 35.45C13.3667 35.2833 12.4254 34.8087 11.6761 34.026C10.9267 33.2433 10.4681 32.3013 10.3001 31.2C9.03339 31.0333 8.00005 30.4833 7.20005 29.55C6.40005 28.6167 6.00005 27.5167 6.00005 26.25C6.00005 25.5833 6.12539 24.942 6.37605 24.326C6.62672 23.71 6.98472 23.168 7.45005 22.7L16.2001 13.95C16.9667 13.1833 17.9087 12.8 19.0261 12.8C20.1434 12.8 21.0847 13.1833 21.8501 13.95L25.6001 17.7C25.6667 17.8 25.7667 17.8753 25.9001 17.926C26.0334 17.9767 26.1667 18.0013 26.3001 18C26.6001 18 26.8501 17.9087 27.0501 17.726C27.2501 17.5433 27.3501 17.3013 27.3501 17C27.3501 16.8667 27.3247 16.7333 27.2741 16.6C27.2234 16.4667 27.1487 16.3667 27.0501 16.3L19.9001 9.15C19.5334 8.75 19.1087 8.45867 18.6261 8.276C18.1434 8.09333 17.6347 8.00133 17.1001 8C16.6001 8 16.1001 8.092 15.6001 8.276C15.1001 8.46 14.6501 8.75133 14.2501 9.15L7.20005 16.25C6.73339 16.7167 6.40005 17.2667 6.20005 17.9C6.00005 18.5333 5.95005 19.1667 6.05005 19.8C6.15005 20.3667 6.03339 20.8667 5.70005 21.3C5.36672 21.7333 4.91672 21.9833 4.35005 22.05C3.78339 22.1167 3.28339 21.9913 2.85005 21.674C2.41672 21.3567 2.16672 20.9153 2.10005 20.35C1.90005 19.0833 1.99205 17.842 2.37605 16.626C2.76005 15.41 3.41805 14.3347 4.35005 13.4L11.4001 6.35C12.2001 5.58333 13.0921 5 14.0761 4.6C15.0601 4.2 16.0681 4 17.1001 4C18.1321 4 19.1407 4.2 20.1261 4.6C21.1114 5 21.9861 5.58333 22.7501 6.35L23.3001 6.9L23.8501 6.35C24.6501 5.58333 25.5421 5 26.5261 4.6C27.5101 4.2 28.5181 4 29.5501 4C30.5821 4 31.5907 4.2 32.5761 4.6C33.5614 5 34.4361 5.58333 35.2001 6.35L43.6501 14.8C44.4167 15.5667 45.0001 16.45 45.4001 17.45C45.8001 18.45 46.0001 19.4667 46.0001 20.5C46.0001 21.5333 45.8001 22.542 45.4001 23.526C45.0001 24.51 44.4167 25.3847 43.6501 26.15L27.2501 42.5C26.7834 42.9667 26.2421 43.3333 25.6261 43.6C25.0101 43.8667 24.3681 44 23.7001 44Z" fill="#4CAF4F"/>
</svg>
